mastitorrents.com
 
http://mastitorrents.com/forums/index.php

Bobby comes home and his mother Raquel immediately calls him into their home office. She has found a video on their computer that she wants to know about. Bobby explains that it's a video of his friend Eddie and his mother. Raquel wants to know what exactly they are doing in the video. So Bobby fast forwards the video and shows Raquel that his friend and his mother are having sex. Raquel is at first shocked to see this act of inc*#t but Bobby calms her down and gets her to understand that yes, they are mother and son but they are also two consenting adults. Raquel leaves the room but returns later with a glass of wine and smoking her cigarette. She sees Bobby watching the video and asks him if it is turning him on to watch his friend Eddie fuck his own mother. Bobby admits that it does. Raquel asks if he thinks Eddies mom is better looking than she is. Bobby says no way, Eddie's mom is a "7 "but Raquel is a definite "10". Raquel offers to give her son a "dance" because she thinks they are close like Eddie and his mom are. They both go downstairs and Raquel begins to do a sexy strip tease for Bobby while smoking . Raquel strips down to nude and then gives her son a " lap dance" Bobby is going crazy with lust. Raquel takes down his pants and begins to stroke and suck him until Bobby cums in her cum hungry mouth. Now Raquel leads her son to the bedroom. She wants to feel his hard cock inside of her so she mounts him and begins to ride him hard to a fierce orgasm. Bobby is ready to cum again but he wants to do it in his mom's ass. He takes out some lube and with his finger he lubes her ass up and finger bangs her ass hole. When Raquel is ready for him Bobby shoves his cock up her ass. Bobby pounds his mom's ass until his balls explode into her tight ass and gives her a fantastic anal cream pie. ( My thanks to a very good customer "Len" for ordering this custom video. The model for this video is Raquel Amato. She has recently shot for Reality Kings, Bang Bro's and Over 40 Magazine. She is available for custom videos)

General
Complete name : RolePlay - Mom And Son Incest Forbidden Sex.wmv
Format : Windows Media
File size : 370 MiB
Duration : 29mn 21s
Overall bit rate mode : Constant
Overall bit rate : 1 762 Kbps
Maximum Overall bit rate : 1 770 Kbps
Encoded date : UTC 2010-09-14 01:52:10.790

Video
ID : 1
Format : VC-1
Format profile : AP@L1
Codec ID : WVC1
Codec ID/Hint : Microsoft
Description of the codec : Windows Media Video 9 Advanced Profile
Duration : 29mn 21s
Bit rate mode : Constant
Bit rate : 1 500 Kbps
Width : 720 pixels
Height : 480 pixels
Display aspect ratio : 3:2
Frame rate : 29.970 fps
Standard : NTSC
Chroma subsampling : 4:2:0
Bit depth : 8 bits
Scan type : Progressive
Compression mode : Lossy
Bits/(Pixel*Frame) : 0.145
Stream size : 315 MiB (85%)
Language : English (US)

Audio
ID : 2
Format : WMA
Format profile : Pro
Codec ID : 162
Codec ID/Info : Windows Media Audio
Description of the codec : Windows Media Audio 10 Professional - 256 kbps, 48 kHz, 2 channel 24 bit 1-pass CBR
Duration : 29mn 21s
Bit rate mode : Constant
Bit rate : 256 Kbps
Channel(s) : 2 channels
Sampling rate : 48.0 KHz
Bit depth : 24 bits
Stream size : 53.8 MiB (15%)
Language : English (US) 